.
 
http://www.scenetime.com    -   SceneTime [ We been having it ] !!!


How come you press harder on a remote control when you know the battery is dead? so you better seed to get speed ;)

        Seed back for speed


...................................NFO:.................................................[pre][img]http://www.leetleech.org/images/17904183504528183128.png[/img]   
            
*******************************************************************************
                Ferocious.Planet.2011.DVDRip.XviD.AC3-PRESTiGE
*******************************************************************************

-------------------------------------------------------------------------------
                              General Information
-------------------------------------------------------------------------------

TiTLE............: Ferocious.Planet.2011.DVDRip.XviD.AC3-PRESTiGE

iMDB.............: http://www.imdb.com/title/tt1637728/

GENRE............: Adventure | Sci-Fi | Thriller

LANGUAGE.........: English

FORMAT...........: AVi

SOURCE...........: DVDR-STOCK MANY THANKS!!!

FiLE SiZE........: 1.37GB

SAMPLE iNCLUDED..: YES

SUBS.............: N/A

DURATiON.........: 1h 28mn

ENCODED by.......: akosipalos



ViDEO iNFO:

ID                               : 0
Format                           : MPEG-4 Visual
Format profile                   : Advanced Simple@L5
Format settings, BVOP            : Yes
Format settings, QPel            : No
Format settings, GMC             : No warppoints
Format settings, Matrix          : Custom
Codec ID                         : XVID
Codec ID/Hint                    : XviD
Duration                         : 1h 28mn
Bit rate                         : 1 767 Kbps
Width                            : 720 pixels
Height                           : 416 pixels
Display aspect ratio             : 16:9
Frame rate                       : 23.976 fps
Color space                      : YUV
Chroma subsampling               : 4:2:0
Bit depth                        : 8 bits
Scan type                        : Progressive
Bits/(Pixel*Frame)               : 0.246
Stream size                      : 1.09 GiB (80%)
Writing library                  : XviD 58


AUDiO iNFO:

ID                               : 1
Format                           : AC-3
Format/Info                      : Audio Coding 3
Mode extension                   : CM (complete main)
Codec ID                         : 2000
Duration                         : 1h 28mn
Bit rate mode                    : Constant
Bit rate                         : 448 Kbps
Channel(s)                       : 6 channels
Channel positions                : Front: L C R, Side: L R, LFE
Sampling rate                    : 48.0 KHz
Bit depth                        : 16 bits
Stream size                      : 282 MiB (20%)
Alignment                        : Split accross interleaves
Interleave, duration             : 96 ms (2.30 video frames)
Interleave, preload duration     : 96 ms
Language                         : English



-------------------------------------------------------------------------------
                                 PLOT:
-------------------------------------------------------------------------------

A groundbreaking device is designed to glimpse alternate universes. But when the machine malfunctions and transports a group of observers into a nightmarish dimension of alien terrors, the travelers must use ingenuity to survive. 

-------------------------------------------------------------------------------
                                 CAST:
-------------------------------------------------------------------------------


Joe Flanigan

John Rhys-Davies

Catherine Walker

Dagmar Dring

Robert Soohan

Yare Michael Jegbefume

Chris Newman

Shashi Rami

Kevin Flood


-------------------------------------------------------------------------------
                               SCREENS:
-------------------------------------------------------------------------------


[img]http://i824.photobucket.com/albums/zz161/akosipalos/fp.png[/img]

[img]http://i824.photobucket.com/albums/zz161/akosipalos/fp2.png[/img]

[img]http://i824.photobucket.com/albums/zz161/akosipalos/fp3.png[/img]

[img]http://i824.photobucket.com/albums/zz161/akosipalos/fp4.png[/img]


-------------------------------------------------------------------------------
                             Release Notes
-------------------------------------------------------------------------------


PRESTiGE - IS LOOKING FOR?: CAMMER'S, AUDIO SUPPLIERS, SYNCER'S, RETAIL
SUPPLIER'S, SILVER'S, SCREENER'S, LINE CAPPER'S

ENCODER'S - ANYTHING AT ALL EMAIL US AT..... prestige@hushmail.me

** ** ** ** ** ** ** ** **

PRESTiGE is the level of respect at which one is regarded by others....RIzE Above Or Sink Below...


-------------------------------------------------------------------------------
                                 GREETZ:
-------------------------------------------------------------------------------


Twisted ,bigguy, Selina, 6of1, CTFX, HiTM4N, bedsy, mtyy, whitestag13, paranoid53, PA4U2C, phules, tac, BMB, Flawl3ss, smelise, fifer, akosipalos, DiLLoN, IMAGINE,"the squad" , floridajoe and To All Encoders Past And Present...


-------------------------------------------------------------------------------
Generated with Cool NFO Creator - http://fly.to/coolbeans
-------------------------------------------------------------------------------
[/pre]